<?xml version="1.0" standalone="no"?>
<!DOCTYPE svg PUBLIC "-//W3C//DTD SVG 20010904//EN"
 "http://www.w3.org/TR/2001/REC-SVG-20010904/DTD/svg10.dtd">
<svg version="1.0" xmlns="http://www.w3.org/2000/svg"
 width="256.000000pt" height="256.000000pt" viewBox="0 0 256.000000 256.000000"
 preserveAspectRatio="xMidYMid meet">

<g transform="translate(0.000000,256.000000) scale(0.100000,-0.100000)"
fill="#000000" stroke="none">
<path d="M1790 2042 c-14 -11 -47 -80 -84 -173 l-62 -154 -88 -5 c-106 -6
-126 -22 -126 -101 l0 -49 -75 0 -75 0 0 -625 0 -625 365 0 365 0 0 -134 c0
-133 0 -135 26 -155 24 -19 40 -21 144 -21 104 0 120 2 144 21 26 20 26 22 26
154 l0 133 81 4 c74 3 83 6 105 31 l24 29 -2 570 -3 570 -28 24 c-27 23 -35
24 -159 24 -100 0 -129 3 -125 13 100 244 157 398 157 419 0 17 -10 34 -26 47
-26 20 -39 21 -294 21 -244 0 -270 -2 -290 -18z m-152 -801 c152 -78 162 -272
19 -361 l-28 -17 49 -54 c89 -100 99 -125 61 -173 -15 -19 -30 -26 -57 -26
-34 -1 -44 7 -114 82 l-78 83 0 -56 c0 -75 -25 -109 -80 -109 -30 0 -43 6 -59
26 -20 26 -21 39 -21 299 0 345 -10 325 156 325 93 0 122 -4 152 -19z"/>
<path d="M1490 1055 l0 -58 43 7 c89 14 89 91 -1 103 l-42 6 0 -58z"/>
<path d="M210 184 c0 -69 4 -134 10 -144 15 -28 64 -40 160 -40 96 0 145 12
160 40 6 10 10 75 10 144 l0 126 -170 0 -170 0 0 -126z"/>
</g>
</svg>
